<?xml version="1.0" standalone="no"?><!DOCTYPE svg PUBLIC "-//W3C//DTD SVG 1.1//EN" "http://www.w3.org/Graphics/SVG/1.1/DTD/svg11.dtd"><svg t="1595817901245" class="icon" viewBox="0 0 1024 1024" version="1.1" xmlns="http://www.w3.org/2000/svg" p-id="1066" xmlns:xlink="http://www.w3.org/1999/xlink" width="200" height="200"><defs><style type="text/css"></style></defs><path d="M295.81210851 871.23436999v-504.86992554h385.12513594v-64.72691371H263.44865223a32.36345629 32.36345629 0 0 0-32.36345742 32.36345742v537.23338183l-177.35174258-177.35174258-45.95610852 45.30883926 233.0168889 233.01688888a33.01072555 33.01072555 0 0 0 45.30883925 0l233.01688889-233.01688888-45.95610852-45.30883926z" fill="#ffcc65" p-id="1067"></path><path d="M951.49574371 42.72987705h-453.08839594a64.72691371 64.72691371 0 0 0-64.72691371 64.72691257v129.45382741h64.72691371v-129.45382741h453.08839594v453.08839595h-453.08839594v-129.45382742h-64.72691371v129.45382742a64.72691371 64.72691371 0 0 0 64.72691371 64.7269137h453.08839594a64.72691371 64.72691371 0 0 0 64.72691258-64.7269137v-453.08839595a64.72691371 64.72691371 0 0 0-64.72691258-64.72691257z" fill="#ffcc65" p-id="1068"></path></svg>