<?xml version="1.0" standalone="no"?><!DOCTYPE svg PUBLIC "-//W3C//DTD SVG 1.1//EN" "http://www.w3.org/Graphics/SVG/1.1/DTD/svg11.dtd"><svg t="1595818999537" class="icon" viewBox="0 0 1024 1024" version="1.1" xmlns="http://www.w3.org/2000/svg" p-id="1096" xmlns:xlink="http://www.w3.org/1999/xlink" width="200" height="200"><defs><style type="text/css"></style></defs><path d="M949.98061563 334.63375796v-58.52555745c0-61.44189326-49.71026963-130.17462608-115.52666664-130.17462606h-291.10333894l-8.74900746-16.10612736a81.52484219 81.52484219 0 0 0-72.90839545-43.877598H142.61955647A109.56143426 109.56143426 0 0 0 34.3837294 197.16829235v605.53736445a109.56143426 109.56143426 0 0 0 108.23582707 111.15216288h748.96806242a109.56143426 109.56143426 0 0 0 108.23582707-111.15216288V431.20424176c0-35.12859054-19.02246318-70.19090071-49.71026962-96.50420345z m-83.38069227-29.22963855h-238.60929422l-39.76821571-76.08985271h247.22574097c13.2560719 0 32.21225472 24.85513482 32.21225472 46.79393381v29.22963855z m49.71026962 124.27567408v371.50141503a27.30750811 27.30750811 0 0 1-24.85513481 27.77147064h-748.96806242a26.51214381 26.51214381 0 0 1-24.85513481-27.77147064V195.71012443a27.30750811 27.30750811 0 0 1 24.85513481-27.77147062h317.48292203l105.31949127 198.84107851a43.08223369 43.08223369 0 0 0 36.58675844 21.938799h271.74947398c16.17240771 0.06628035 42.68455152 26.37958309 42.68455151 40.96126217z" fill="#ffcc65" p-id="1097"></path></svg>