<?xml version="1.0" standalone="no"?><!DOCTYPE svg PUBLIC "-//W3C//DTD SVG 1.1//EN" "http://www.w3.org/Graphics/SVG/1.1/DTD/svg11.dtd"><svg t="1594954089437" class="icon" viewBox="0 0 1024 1024" version="1.1" xmlns="http://www.w3.org/2000/svg" p-id="1035" xmlns:xlink="http://www.w3.org/1999/xlink" width="200" height="200"><defs><style type="text/css"></style></defs><path d="M121.6 377.6c0 6.4-6.4 6.4 0 0zM403.2 326.4L576 473.6 505.6 588.8l377.6-108.8-96-371.2L697.6 256 531.2 153.6c-108.8-64-249.6-32-313.6 70.4L121.6 377.6c64-89.6 192-115.2 281.6-51.2z" fill="#8a8a8a" p-id="1036"></path><path d="M524.8 768L352 620.8l76.8-121.6L51.2 608l96 371.2L230.4 832l166.4 108.8c108.8 64 249.6 32 313.6-70.4l96-153.6v-6.4c-51.2 89.6-179.2 115.2-281.6 57.6z" fill="#8a8a8a" p-id="1037"></path></svg>